<svg version="1.1" xmlns="http://www.w3.org/2000/svg" xmlns:xlink="http://www.w3.org/1999/xlink" width="300.000000pt" height="300.000000pt" viewBox="0,0,256,256"><g transform="translate(38.4,38.4) scale(0.7,0.7)"><g fill="#d97706" fill-rule="nonzero" stroke="none" stroke-width="1" stroke-linecap="butt" stroke-linejoin="miter" stroke-miterlimit="10" stroke-dasharray="" stroke-dashoffset="0" font-family="none" font-weight="none" font-size="none" text-anchor="none" style="mix-blend-mode: normal"><g transform="translate(-0.19827,2.31309) scale(0.85333,0.85333)"><g transform="translate(0,300) scale(0.1,-0.1)"><path d="M1345,2646c-232,-56 -404,-310 -366,-539c7,-39 22,-97 35,-129l24,-59l-32,-24c-58,-45 -150,-114 -293,-220l-141,-105l-53,27c-47,25 -64,28 -144,28c-81,0 -95,-3 -144,-30c-173,-95 -217,-325 -90,-468c140,-159 367,-150 487,21c28,40 44,77 53,121c13,63 12,73 -25,196c-5,17 28,45 209,180c119,88 222,164 229,169c10,7 26,0 54,-22c59,-47 144,-89 206,-102l56,-11v-338v-337l-50,-18c-102,-37 -185,-146 -197,-258c-12,-120 59,-245 172,-303c78,-40 184,-42 259,-6c109,54 180,164 181,282c0,56 -5,76 -35,135c-38,75 -105,135 -172,156l-38,11v339c0,275 2,338 13,338c39,0 151,48 216,91c40,28 76,49 80,47c16,-7 480,-360 490,-372c9,-11 9,-20 2,-35c-16,-29 -13,-130 4,-182c25,-74 83,-140 155,-177c61,-32 70,-34 145,-30c101,5 157,30 219,99c56,63 91,159 81,229c-9,64 -59,162 -104,203c-103,93 -264,101 -383,19l-45,-31l-246,184c-135,101 -248,189 -252,194c-3,6 2,25 11,43c28,53 44,128 44,203c0,325 -298,558 -615,481zM1445,2348c15,-32 33,-33 47,-3c16,36 42,28 46,-14c3,-26 7,-32 20,-28c65,21 65,21 59,1c-21,-68 -22,-64 17,-64c28,0 36,-4 36,-18c0,-11 -12,-24 -26,-31c-29,-13 -28,-31 4,-46c12,-5 22,-18 22,-27c0,-14 -8,-18 -35,-18c-39,0 -44,-13 -20,-47c20,-29 -2,-50 -31,-28c-31,24 -44,18 -44,-19c0,-46 -25,-55 -45,-16c-19,36 -30,38 -46,8c-25,-48 -49,-45 -49,8c0,38 -9,42 -46,17c-22,-14 -27,-14 -34,-2c-6,9 -4,22 5,36c22,34 18,41 -22,45c-47,4 -53,22 -14,43c39,19 39,26 0,49c-38,23 -33,40 14,44c40,3 45,15 22,46c-22,29 -1,51 28,31c34,-24 47,-19 47,20c0,27 4,35 18,35c9,0 22,-10 27,-22z"></path></g></g></g></g></svg>
